<mxfile host="app.diagrams.net" modified="2022-10-25T11:00:54.234Z" agent="5.0 (Windows NT 10.0; Win64; x64) AppleWebKit/537.36 (KHTML, like Gecko) Chrome/104.0.5112.124 YaBrowser/22.9.3.888 Yowser/2.5 Safari/537.36" etag="zb7a-L4Ydzanzf4opTPm" version="20.5.1" type="github">
  <diagram id="kgpKYQtTHZ0yAKxKKP6v" name="Page-1">
    <mxGraphModel dx="990" dy="551" grid="1" gridSize="10" guides="1" tooltips="1" connect="1" arrows="1" fold="1" page="1" pageScale="1" pageWidth="850" pageHeight="1100" math="0" shadow="0">
      <root>
        <mxCell id="0" />
        <mxCell id="1" parent="0" />
        <mxCell id="3nuBFxr9cyL0pnOWT2aG-1" value=":клиент" style="shape=umlLifeline;perimeter=lifelinePerimeter;container=1;collapsible=0;recursiveResize=0;rounded=0;shadow=0;strokeWidth=1;" parent="1" vertex="1">
          <mxGeometry x="140" y="80" width="100" height="600" as="geometry" />
        </mxCell>
        <mxCell id="3nuBFxr9cyL0pnOWT2aG-2" value="" style="points=[];perimeter=orthogonalPerimeter;rounded=0;shadow=0;strokeWidth=1;" parent="3nuBFxr9cyL0pnOWT2aG-1" vertex="1">
          <mxGeometry x="45" y="70" width="10" height="450" as="geometry" />
        </mxCell>
        <mxCell id="3nuBFxr9cyL0pnOWT2aG-3" value="" style="verticalAlign=bottom;startArrow=oval;endArrow=block;startSize=8;shadow=0;strokeWidth=1;" parent="3nuBFxr9cyL0pnOWT2aG-1" target="3nuBFxr9cyL0pnOWT2aG-2" edge="1">
          <mxGeometry relative="1" as="geometry">
            <mxPoint x="-110" y="70" as="sourcePoint" />
          </mxGeometry>
        </mxCell>
        <mxCell id="3nuBFxr9cyL0pnOWT2aG-5" value=":сайт" style="shape=umlLifeline;perimeter=lifelinePerimeter;container=1;collapsible=0;recursiveResize=0;rounded=0;shadow=0;strokeWidth=1;" parent="1" vertex="1">
          <mxGeometry x="300" y="80" width="100" height="600" as="geometry" />
        </mxCell>
        <mxCell id="3nuBFxr9cyL0pnOWT2aG-6" value="" style="points=[];perimeter=orthogonalPerimeter;rounded=0;shadow=0;strokeWidth=1;" parent="3nuBFxr9cyL0pnOWT2aG-5" vertex="1">
          <mxGeometry x="45" y="120" width="10" height="70" as="geometry" />
        </mxCell>
        <mxCell id="dZZaSURvjyK8Mu3CFqbQ-13" value="отправка чека" style="html=1;verticalAlign=bottom;endArrow=open;dashed=1;endSize=8;rounded=0;" parent="3nuBFxr9cyL0pnOWT2aG-5" edge="1">
          <mxGeometry relative="1" as="geometry">
            <mxPoint x="45" y="160" as="sourcePoint" />
            <mxPoint x="-100" y="160" as="targetPoint" />
            <Array as="points">
              <mxPoint x="5" y="160" />
            </Array>
          </mxGeometry>
        </mxCell>
        <mxCell id="dZZaSURvjyK8Mu3CFqbQ-15" value="данные по заказу" style="html=1;verticalAlign=bottom;endArrow=block;rounded=0;" parent="3nuBFxr9cyL0pnOWT2aG-5" edge="1">
          <mxGeometry width="80" relative="1" as="geometry">
            <mxPoint x="60" y="190" as="sourcePoint" />
            <mxPoint x="220" y="190" as="targetPoint" />
          </mxGeometry>
        </mxCell>
        <mxCell id="PPbHHssDrmAVjP7Bx44d-5" value="" style="html=1;points=[];perimeter=orthogonalPerimeter;" vertex="1" parent="3nuBFxr9cyL0pnOWT2aG-5">
          <mxGeometry x="45" y="240" width="10" height="40" as="geometry" />
        </mxCell>
        <mxCell id="PPbHHssDrmAVjP7Bx44d-18" value="" style="html=1;points=[];perimeter=orthogonalPerimeter;" vertex="1" parent="3nuBFxr9cyL0pnOWT2aG-5">
          <mxGeometry x="45" y="360" width="10" height="20" as="geometry" />
        </mxCell>
        <mxCell id="PPbHHssDrmAVjP7Bx44d-21" value="статус:заказ готов" style="html=1;verticalAlign=bottom;endArrow=open;dashed=1;endSize=8;rounded=0;" edge="1" parent="3nuBFxr9cyL0pnOWT2aG-5">
          <mxGeometry relative="1" as="geometry">
            <mxPoint x="-100" y="380" as="targetPoint" />
            <mxPoint x="40" y="380" as="sourcePoint" />
          </mxGeometry>
        </mxCell>
        <mxCell id="PPbHHssDrmAVjP7Bx44d-26" value="" style="html=1;points=[];perimeter=orthogonalPerimeter;" vertex="1" parent="3nuBFxr9cyL0pnOWT2aG-5">
          <mxGeometry x="45" y="390" width="10" height="40" as="geometry" />
        </mxCell>
        <mxCell id="3nuBFxr9cyL0pnOWT2aG-8" value="оплата заказа" style="verticalAlign=bottom;endArrow=block;shadow=0;strokeWidth=1;" parent="1" source="3nuBFxr9cyL0pnOWT2aG-2" target="3nuBFxr9cyL0pnOWT2aG-5" edge="1">
          <mxGeometry relative="1" as="geometry">
            <mxPoint x="275" y="160" as="sourcePoint" />
            <Array as="points">
              <mxPoint x="270" y="200" />
            </Array>
          </mxGeometry>
        </mxCell>
        <mxCell id="dZZaSURvjyK8Mu3CFqbQ-1" value=":система обработки заказов ресторана" style="rounded=0;whiteSpace=wrap;html=1;" parent="1" vertex="1">
          <mxGeometry x="465" y="80" width="110" height="60" as="geometry" />
        </mxCell>
        <mxCell id="dZZaSURvjyK8Mu3CFqbQ-8" value="" style="endArrow=none;dashed=1;html=1;rounded=0;entryX=0.5;entryY=1;entryDx=0;entryDy=0;startArrow=none;" parent="1" source="dZZaSURvjyK8Mu3CFqbQ-16" target="dZZaSURvjyK8Mu3CFqbQ-1" edge="1">
          <mxGeometry width="50" height="50" relative="1" as="geometry">
            <mxPoint x="520" y="440" as="sourcePoint" />
            <mxPoint x="570" y="280" as="targetPoint" />
          </mxGeometry>
        </mxCell>
        <mxCell id="dZZaSURvjyK8Mu3CFqbQ-14" value="&amp;nbsp; &amp;nbsp; &amp;nbsp;выбор состава заказа" style="text;html=1;align=center;verticalAlign=middle;resizable=0;points=[];autosize=1;strokeColor=none;fillColor=none;" parent="1" vertex="1">
          <mxGeometry x="20" y="120" width="160" height="30" as="geometry" />
        </mxCell>
        <mxCell id="dZZaSURvjyK8Mu3CFqbQ-16" value="" style="points=[];perimeter=orthogonalPerimeter;rounded=0;shadow=0;strokeWidth=1;" parent="1" vertex="1">
          <mxGeometry x="515" y="270" width="10" height="50" as="geometry" />
        </mxCell>
        <mxCell id="dZZaSURvjyK8Mu3CFqbQ-17" value="" style="endArrow=none;dashed=1;html=1;rounded=0;entryX=0.5;entryY=1;entryDx=0;entryDy=0;" parent="1" target="dZZaSURvjyK8Mu3CFqbQ-16" edge="1">
          <mxGeometry width="50" height="50" relative="1" as="geometry">
            <mxPoint x="520" y="680.7999877929688" as="sourcePoint" />
            <mxPoint x="520" y="120" as="targetPoint" />
          </mxGeometry>
        </mxCell>
        <mxCell id="PPbHHssDrmAVjP7Bx44d-1" value=":персонал ресторана" style="shape=umlLifeline;perimeter=lifelinePerimeter;whiteSpace=wrap;html=1;container=1;collapsible=0;recursiveResize=0;outlineConnect=0;" vertex="1" parent="1">
          <mxGeometry x="630" y="80" width="100" height="600" as="geometry" />
        </mxCell>
        <mxCell id="PPbHHssDrmAVjP7Bx44d-12" value="" style="html=1;points=[];perimeter=orthogonalPerimeter;" vertex="1" parent="PPbHHssDrmAVjP7Bx44d-1">
          <mxGeometry x="45" y="200" width="10" height="160" as="geometry" />
        </mxCell>
        <mxCell id="PPbHHssDrmAVjP7Bx44d-6" value="статус: готовится" style="html=1;verticalAlign=bottom;endArrow=open;dashed=1;endSize=8;rounded=0;" edge="1" parent="1" target="3nuBFxr9cyL0pnOWT2aG-5">
          <mxGeometry relative="1" as="geometry">
            <mxPoint x="515" y="320" as="sourcePoint" />
            <mxPoint x="435" y="320" as="targetPoint" />
          </mxGeometry>
        </mxCell>
        <mxCell id="PPbHHssDrmAVjP7Bx44d-7" value="return" style="html=1;verticalAlign=bottom;endArrow=open;dashed=1;endSize=8;rounded=0;exitX=0.1;exitY=0.975;exitDx=0;exitDy=0;exitPerimeter=0;" edge="1" parent="1" source="PPbHHssDrmAVjP7Bx44d-5">
          <mxGeometry x="1" y="164" relative="1" as="geometry">
            <mxPoint x="460" y="260" as="sourcePoint" />
            <mxPoint x="200" y="360" as="targetPoint" />
            <Array as="points" />
            <mxPoint x="-130" y="-64" as="offset" />
          </mxGeometry>
        </mxCell>
        <mxCell id="PPbHHssDrmAVjP7Bx44d-11" value="статус: готовится" style="text;html=1;align=center;verticalAlign=middle;resizable=0;points=[];autosize=1;strokeColor=none;fillColor=none;" vertex="1" parent="1">
          <mxGeometry x="210" y="335" width="120" height="30" as="geometry" />
        </mxCell>
        <mxCell id="PPbHHssDrmAVjP7Bx44d-13" value="данные по заказу" style="html=1;verticalAlign=bottom;endArrow=block;entryX=0;entryY=0;rounded=0;" edge="1" target="PPbHHssDrmAVjP7Bx44d-12" parent="1" source="dZZaSURvjyK8Mu3CFqbQ-16">
          <mxGeometry relative="1" as="geometry">
            <mxPoint x="600" y="280" as="sourcePoint" />
          </mxGeometry>
        </mxCell>
        <mxCell id="PPbHHssDrmAVjP7Bx44d-16" value=":курьерская служба" style="shape=umlLifeline;perimeter=lifelinePerimeter;whiteSpace=wrap;html=1;container=1;collapsible=0;recursiveResize=0;outlineConnect=0;" vertex="1" parent="1">
          <mxGeometry x="800" y="80" width="100" height="600" as="geometry" />
        </mxCell>
        <mxCell id="PPbHHssDrmAVjP7Bx44d-22" value="" style="html=1;points=[];perimeter=orthogonalPerimeter;" vertex="1" parent="PPbHHssDrmAVjP7Bx44d-16">
          <mxGeometry x="45" y="350" width="10" height="150" as="geometry" />
        </mxCell>
        <mxCell id="PPbHHssDrmAVjP7Bx44d-25" value="статус: заказ доставляется" style="html=1;verticalAlign=bottom;endArrow=open;dashed=1;endSize=8;rounded=0;" edge="1" parent="PPbHHssDrmAVjP7Bx44d-16" target="PPbHHssDrmAVjP7Bx44d-26">
          <mxGeometry relative="1" as="geometry">
            <mxPoint x="40" y="400" as="sourcePoint" />
            <mxPoint x="-390" y="400" as="targetPoint" />
          </mxGeometry>
        </mxCell>
        <mxCell id="PPbHHssDrmAVjP7Bx44d-14" value="статус:заказ готов" style="html=1;verticalAlign=bottom;endArrow=open;dashed=1;endSize=8;exitX=0;exitY=0.95;rounded=0;" edge="1" source="PPbHHssDrmAVjP7Bx44d-12" parent="1" target="PPbHHssDrmAVjP7Bx44d-19">
          <mxGeometry relative="1" as="geometry">
            <mxPoint x="520" y="430" as="targetPoint" />
          </mxGeometry>
        </mxCell>
        <mxCell id="PPbHHssDrmAVjP7Bx44d-19" value="" style="html=1;points=[];perimeter=orthogonalPerimeter;" vertex="1" parent="1">
          <mxGeometry x="515" y="430" width="10" height="20" as="geometry" />
        </mxCell>
        <mxCell id="PPbHHssDrmAVjP7Bx44d-20" value="статус:заказ готов" style="html=1;verticalAlign=bottom;endArrow=open;dashed=1;endSize=8;exitX=0;exitY=0.95;rounded=0;" edge="1" parent="1">
          <mxGeometry relative="1" as="geometry">
            <mxPoint x="350" y="450" as="targetPoint" />
            <mxPoint x="515" y="449.9999999999998" as="sourcePoint" />
          </mxGeometry>
        </mxCell>
        <mxCell id="PPbHHssDrmAVjP7Bx44d-23" value="заказ" style="html=1;verticalAlign=bottom;endArrow=block;entryX=0.82;entryY=0.003;rounded=0;entryDx=0;entryDy=0;entryPerimeter=0;" edge="1" target="PPbHHssDrmAVjP7Bx44d-22" parent="1" source="PPbHHssDrmAVjP7Bx44d-1">
          <mxGeometry relative="1" as="geometry">
            <mxPoint x="780" y="335" as="sourcePoint" />
          </mxGeometry>
        </mxCell>
        <mxCell id="PPbHHssDrmAVjP7Bx44d-24" value="заказ" style="html=1;verticalAlign=bottom;endArrow=open;dashed=1;endSize=8;exitX=0;exitY=0.95;rounded=0;" edge="1" source="PPbHHssDrmAVjP7Bx44d-22" parent="1" target="3nuBFxr9cyL0pnOWT2aG-1">
          <mxGeometry relative="1" as="geometry">
            <mxPoint x="740" y="506" as="targetPoint" />
          </mxGeometry>
        </mxCell>
        <mxCell id="PPbHHssDrmAVjP7Bx44d-27" value="статус:заказ доставляется" style="html=1;verticalAlign=bottom;endArrow=open;dashed=1;endSize=8;rounded=0;" edge="1" parent="1">
          <mxGeometry relative="1" as="geometry">
            <mxPoint x="350" y="510" as="sourcePoint" />
            <mxPoint x="200" y="510" as="targetPoint" />
          </mxGeometry>
        </mxCell>
      </root>
    </mxGraphModel>
  </diagram>
</mxfile>
